<svg width="208" height="62" viewBox="0 0 208 62" fill="none" xmlns="http://www.w3.org/2000/svg">
<path d="M65.0156 34.875V38H50.1719V34.875H53.2969V16.9062H50.1719V13.7812H71.2656V21.5938H67.75V20.0312C67.75 19.7122 67.7207 19.3835 67.6621 19.0449C67.61 18.7064 67.5254 18.3711 67.4082 18.0391C67.2975 17.707 67.1348 17.4368 66.9199 17.2285C66.7051 17.0137 66.4609 16.9062 66.1875 16.9062H59.5469V25.5H63.0625V21.9844H66.1875V32.1406H63.0625V28.625H59.5469V34.875H65.0156ZM76.4707 17.9512C75.8652 17.3392 75.5625 16.6003 75.5625 15.7344C75.5625 14.8685 75.8652 14.1328 76.4707 13.5273C77.0827 12.9154 77.8216 12.6094 78.6875 12.6094C79.5534 12.6094 80.2891 12.9154 80.8945 13.5273C81.5065 14.1328 81.8125 14.8685 81.8125 15.7344C81.8125 16.6003 81.5065 17.3392 80.8945 17.9512C80.2891 18.5566 79.5534 18.8594 78.6875 18.8594C77.8216 18.8594 77.0827 18.5566 76.4707 17.9512ZM74 20.0312H81.4219V34.875H83.375V38H74V34.875H75.9531V23.1562H74V20.0312ZM90.4062 16.125H92.3594V20.0312H97.8281V23.1562H92.3594V33.3125C92.3594 33.7552 92.4831 34.1263 92.7305 34.4258C92.9844 34.7253 93.3815 34.875 93.9219 34.875C94.5273 34.875 95.0417 34.6764 95.4648 34.2793C95.888 33.8757 96.1549 33.293 96.2656 32.5312L98.6094 32.9219C98.5117 33.6836 98.3229 34.39 98.043 35.041C97.7695 35.6855 97.4115 36.2617 96.9688 36.7695C96.526 37.2708 95.9759 37.668 95.3184 37.9609C94.6673 38.2474 93.9414 38.3906 93.1406 38.3906C91.194 38.3906 89.6641 37.9382 88.5508 37.0332C87.444 36.1217 86.8906 34.8815 86.8906 33.3125V23.1562H84.9375V20.0312H85.3281C86.3307 20.0312 87.2161 19.7448 87.9844 19.1719C88.7526 18.599 89.5599 17.5833 90.4062 16.125ZM115.406 34.875V38H100.562V34.875H103.688V16.9062H100.562V13.7812H121.656V21.5938H118.141V20.0312C118.141 19.7122 118.111 19.3835 118.053 19.0449C118.001 18.7064 117.916 18.3711 117.799 18.0391C117.688 17.707 117.525 17.4368 117.311 17.2285C117.096 17.0137 116.852 16.9062 116.578 16.9062H109.938V25.5H113.453V21.9844H116.578V32.1406H113.453V28.625H109.938V34.875H115.406ZM127.955 20.373C129.101 19.9238 130.315 19.6992 131.598 19.6992C132.88 19.6992 134.091 19.9238 135.23 20.373C136.376 20.8223 137.372 21.4505 138.219 22.2578C139.065 23.0586 139.732 24.0482 140.221 25.2266C140.715 26.4049 140.963 27.6875 140.963 29.0742C140.963 30.4609 140.715 31.7435 140.221 32.9219C139.732 34.1003 139.065 35.0931 138.219 35.9004C137.372 36.7012 136.376 37.3262 135.23 37.7754C134.091 38.2246 132.88 38.4492 131.598 38.4492C130.315 38.4492 129.101 38.2246 127.955 37.7754C126.816 37.3262 125.823 36.7012 124.977 35.9004C124.137 35.0931 123.469 34.1003 122.975 32.9219C122.486 31.7435 122.242 30.4609 122.242 29.0742C122.242 27.6875 122.486 26.4049 122.975 25.2266C123.469 24.0482 124.137 23.0586 124.977 22.2578C125.823 21.4505 126.816 20.8223 127.955 20.373ZM131.598 22.8242C131.142 22.8242 130.735 22.8893 130.377 23.0195C130.019 23.1497 129.69 23.3646 129.391 23.6641C129.091 23.9635 128.844 24.3509 128.648 24.8262C128.46 25.3014 128.31 25.8939 128.199 26.6035C128.095 27.3132 128.043 28.1367 128.043 29.0742C128.043 30.0117 128.095 30.8353 128.199 31.5449C128.31 32.2546 128.46 32.847 128.648 33.3223C128.844 33.7975 129.091 34.1849 129.391 34.4844C129.69 34.7839 130.019 34.9987 130.377 35.1289C130.735 35.2591 131.142 35.3242 131.598 35.3242C132.171 35.3242 132.669 35.2168 133.092 35.002C133.515 34.7806 133.883 34.429 134.195 33.9473C134.514 33.4655 134.752 32.8177 134.908 32.0039C135.071 31.1901 135.152 30.2135 135.152 29.0742C135.152 27.9349 135.071 26.9583 134.908 26.1445C134.752 25.3307 134.514 24.6829 134.195 24.2012C133.883 23.7194 133.515 23.3711 133.092 23.1562C132.669 22.9349 132.171 22.8242 131.598 22.8242ZM142.711 20.0312H150.133V30.9688C150.133 31.9974 150.224 32.7982 150.406 33.3711C150.595 33.944 150.862 34.3379 151.207 34.5527C151.559 34.7676 152.034 34.875 152.633 34.875C153.18 34.875 153.74 34.6439 154.312 34.1816C154.892 33.7194 155.439 33.0749 155.953 32.248L155.992 23.1562H154.039V20.0312H161.461V34.875H163.414V38H157.35L155.982 35.3438C154.882 37.375 153.062 38.3906 150.523 38.3906C149.612 38.3906 148.814 38.2669 148.131 38.0195C147.447 37.7721 146.887 37.4336 146.451 37.0039C146.015 36.5677 145.66 36.0176 145.387 35.3535C145.12 34.6829 144.931 33.9668 144.82 33.2051C144.716 32.4368 144.664 31.5612 144.664 30.5781V23.1562H142.711V20.0312ZM177.867 19.6406C178.779 19.6406 179.576 19.7643 180.26 20.0117C180.943 20.2591 181.503 20.6009 181.939 21.0371C182.376 21.4668 182.727 22.0169 182.994 22.6875C183.268 23.3516 183.456 24.0677 183.561 24.8359C183.671 25.5977 183.727 26.4701 183.727 27.4531V34.875H185.68V38H176.305V34.875H178.258V27.0625C178.258 26.0339 178.163 25.2331 177.975 24.6602C177.792 24.0872 177.525 23.6934 177.174 23.4785C176.829 23.2637 176.357 23.1562 175.758 23.1562C175.211 23.1562 174.651 23.3874 174.078 23.8496C173.505 24.3118 172.962 24.9564 172.447 25.7832L172.398 34.875H174.352V38H164.977V34.875H166.93V23.1562H164.977V20.0312H171.041L172.408 22.6777C172.649 22.2415 172.926 21.8509 173.238 21.5059C173.557 21.1543 173.935 20.8353 174.371 20.5488C174.814 20.2559 175.331 20.0312 175.924 19.875C176.516 19.7188 177.164 19.6406 177.867 19.6406ZM193.678 38.4492C192.154 38.4492 190.862 38.0586 189.801 37.2773C188.74 36.4961 187.949 35.4056 187.428 34.0059C186.913 32.6061 186.656 30.9395 186.656 29.0059C186.656 27.5931 186.839 26.3008 187.203 25.1289C187.574 23.957 188.089 22.9707 188.746 22.1699C189.41 21.3626 190.208 20.7409 191.139 20.3047C192.076 19.862 193.102 19.6406 194.215 19.6406C194.775 19.6406 195.302 19.6927 195.797 19.7969C196.292 19.8945 196.712 20.0182 197.057 20.168C197.408 20.3177 197.74 20.5033 198.053 20.7246C198.365 20.946 198.616 21.1543 198.805 21.3496C199 21.5449 199.189 21.763 199.371 22.0039V16.9062H197.418V13.7812H204.84V34.875H206.793V38H200.992L199.811 35.7344C199.557 36.0859 199.27 36.4082 198.951 36.7012C197.662 37.8665 195.904 38.4492 193.678 38.4492ZM199.371 25.3145C198.629 23.9473 197.62 23.2637 196.344 23.2637C195.055 23.2637 194.094 23.7682 193.463 24.7773C192.838 25.7865 192.525 27.2188 192.525 29.0742C192.525 29.9466 192.626 30.7539 192.828 31.4961C193.036 32.2318 193.31 32.8438 193.648 33.332C193.993 33.8203 194.387 34.2012 194.83 34.4746C195.273 34.7415 195.735 34.875 196.217 34.875C196.868 34.875 197.444 34.696 197.945 34.3379C198.453 33.9733 198.928 33.4362 199.371 32.7266V25.3145Z" fill="white"/>
<path d="M26.2209 32.6649C26.2209 32.6649 31.336 30.5165 32.8779 26.3981L33.4343 32.337L47.6491 41.5918L48.3198 49.9157L39.6402 49.3661L32.1033 33.5275L26.2217 32.6641L26.2209 32.6649Z" fill="white"/>
<path d="M13.0842 12.0581C6.07817 18.6534 5.73375 29.6673 12.315 36.6583C14.0925 38.5466 16.1954 39.9492 18.4552 40.8594C21.1138 41.9301 23.9904 42.3202 26.8114 42.0188C27.0186 41.9985 27.2235 41.9732 27.4272 41.9442C27.2015 40.9896 25.9406 35.3564 26.9444 32.888C24.1134 33.566 21.0098 32.7513 18.874 30.4825C15.6955 27.1061 15.8625 21.7878 19.2455 18.603C22.6286 15.4182 27.9479 15.5731 31.1258 18.9489C33.1928 21.1446 33.8455 24.162 33.1171 26.8786C33.637 26.6946 36.3943 25.9434 42.0339 28.2615C43.1592 22.8859 41.7305 17.0707 37.6855 12.7738C31.1049 5.78339 20.0903 5.46267 13.0842 12.0581Z" fill="white"/>
</svg>
