<svg width="208" height="62" viewBox="0 0 208 62" fill="none" xmlns="http://www.w3.org/2000/svg">
<path d="M64.6169 34.7588V37.8838H49.7732V34.7588H52.8982V16.79H49.7732V13.665H70.8669V21.4775H67.3513V19.915C67.3513 19.596 67.322 19.2673 67.2634 18.9287C67.2113 18.5902 67.1267 18.2549 67.0095 17.9229C66.8988 17.5908 66.7361 17.3206 66.5212 17.1123C66.3064 16.8975 66.0623 16.79 65.7888 16.79H59.1482V25.3838H62.6638V21.8682H65.7888V32.0244H62.6638V28.5088H59.1482V34.7588H64.6169ZM76.072 17.835C75.4666 17.223 75.1638 16.484 75.1638 15.6182C75.1638 14.7523 75.4666 14.0166 76.072 13.4111C76.684 12.7992 77.4229 12.4932 78.2888 12.4932C79.1547 12.4932 79.8904 12.7992 80.4958 13.4111C81.1078 14.0166 81.4138 14.7523 81.4138 15.6182C81.4138 16.484 81.1078 17.223 80.4958 17.835C79.8904 18.4404 79.1547 18.7432 78.2888 18.7432C77.4229 18.7432 76.684 18.4404 76.072 17.835ZM73.6013 19.915H81.0232V34.7588H82.9763V37.8838H73.6013V34.7588H75.5544V23.04H73.6013V19.915ZM90.0076 16.0088H91.9607V19.915H97.4294V23.04H91.9607V33.1963C91.9607 33.639 92.0844 34.0101 92.3318 34.3096C92.5857 34.609 92.9828 34.7588 93.5232 34.7588C94.1287 34.7588 94.643 34.5602 95.0662 34.1631C95.4893 33.7594 95.7563 33.1768 95.8669 32.415L98.2107 32.8057C98.113 33.5674 97.9242 34.2738 97.6443 34.9248C97.3708 35.5693 97.0128 36.1455 96.5701 36.6533C96.1274 37.1546 95.5772 37.5518 94.9197 37.8447C94.2686 38.1312 93.5427 38.2744 92.7419 38.2744C90.7953 38.2744 89.2654 37.8219 88.1521 36.917C87.0453 36.0055 86.4919 34.7653 86.4919 33.1963V23.04H84.5388V19.915H84.9294C85.932 19.915 86.8175 19.6286 87.5857 19.0557C88.3539 18.4827 89.1612 17.4671 90.0076 16.0088ZM115.008 34.7588V37.8838H100.164V34.7588H103.289V16.79H100.164V13.665H121.258V21.4775H117.742V19.915C117.742 19.596 117.713 19.2673 117.654 18.9287C117.602 18.5902 117.517 18.2549 117.4 17.9229C117.289 17.5908 117.127 17.3206 116.912 17.1123C116.697 16.8975 116.453 16.79 116.179 16.79H109.539V25.3838H113.054V21.8682H116.179V32.0244H113.054V28.5088H109.539V34.7588H115.008ZM127.556 20.2568C128.702 19.8076 129.916 19.583 131.199 19.583C132.482 19.583 133.692 19.8076 134.832 20.2568C135.978 20.7061 136.974 21.3343 137.82 22.1416C138.666 22.9424 139.334 23.932 139.822 25.1104C140.317 26.2887 140.564 27.5713 140.564 28.958C140.564 30.3447 140.317 31.6273 139.822 32.8057C139.334 33.984 138.666 34.9769 137.82 35.7842C136.974 36.585 135.978 37.21 134.832 37.6592C133.692 38.1084 132.482 38.333 131.199 38.333C129.916 38.333 128.702 38.1084 127.556 37.6592C126.417 37.21 125.424 36.585 124.578 35.7842C123.738 34.9769 123.071 33.984 122.576 32.8057C122.088 31.6273 121.844 30.3447 121.844 28.958C121.844 27.5713 122.088 26.2887 122.576 25.1104C123.071 23.932 123.738 22.9424 124.578 22.1416C125.424 21.3343 126.417 20.7061 127.556 20.2568ZM131.199 22.708C130.743 22.708 130.336 22.7731 129.978 22.9033C129.62 23.0335 129.291 23.2484 128.992 23.5479C128.692 23.8473 128.445 24.2347 128.25 24.71C128.061 25.1852 127.911 25.7777 127.801 26.4873C127.696 27.1969 127.644 28.0205 127.644 28.958C127.644 29.8955 127.696 30.7191 127.801 31.4287C127.911 32.1383 128.061 32.7308 128.25 33.2061C128.445 33.6813 128.692 34.0687 128.992 34.3682C129.291 34.6676 129.62 34.8825 129.978 35.0127C130.336 35.1429 130.743 35.208 131.199 35.208C131.772 35.208 132.27 35.1006 132.693 34.8857C133.116 34.6644 133.484 34.3128 133.797 33.8311C134.116 33.3493 134.353 32.7015 134.51 31.8877C134.672 31.0739 134.754 30.0973 134.754 28.958C134.754 27.8187 134.672 26.8421 134.51 26.0283C134.353 25.2145 134.116 24.5667 133.797 24.085C133.484 23.6032 133.116 23.2549 132.693 23.04C132.27 22.8187 131.772 22.708 131.199 22.708ZM142.312 19.915H149.734V30.8525C149.734 31.8812 149.825 32.682 150.008 33.2549C150.196 33.8278 150.463 34.2217 150.808 34.4365C151.16 34.6514 151.635 34.7588 152.234 34.7588C152.781 34.7588 153.341 34.5277 153.914 34.0654C154.493 33.6032 155.04 32.9587 155.554 32.1318L155.594 23.04H153.64V19.915H161.062V34.7588H163.015V37.8838H156.951L155.584 35.2275C154.483 37.2588 152.664 38.2744 150.125 38.2744C149.213 38.2744 148.416 38.1507 147.732 37.9033C147.049 37.6559 146.489 37.3174 146.052 36.8877C145.616 36.4515 145.261 35.9014 144.988 35.2373C144.721 34.5667 144.532 33.8506 144.422 33.0889C144.317 32.3206 144.265 31.445 144.265 30.4619V23.04H142.312V19.915ZM177.469 19.5244C178.38 19.5244 179.177 19.6481 179.861 19.8955C180.545 20.1429 181.105 20.4847 181.541 20.9209C181.977 21.3506 182.329 21.9007 182.595 22.5713C182.869 23.2354 183.058 23.9515 183.162 24.7197C183.273 25.4814 183.328 26.3538 183.328 27.3369V34.7588H185.281V37.8838H175.906V34.7588H177.859V26.9463C177.859 25.9176 177.765 25.1169 177.576 24.5439C177.394 23.971 177.127 23.5771 176.775 23.3623C176.43 23.1475 175.958 23.04 175.359 23.04C174.812 23.04 174.252 23.2712 173.679 23.7334C173.107 24.1956 172.563 24.8402 172.049 25.667L172 34.7588H173.953V37.8838H164.578V34.7588H166.531V23.04H164.578V19.915H170.642L172.01 22.5615C172.25 22.1253 172.527 21.7347 172.84 21.3896C173.159 21.0381 173.536 20.7191 173.972 20.4326C174.415 20.1396 174.933 19.915 175.525 19.7588C176.118 19.6025 176.765 19.5244 177.469 19.5244ZM193.279 38.333C191.756 38.333 190.463 37.9424 189.402 37.1611C188.341 36.3799 187.55 35.2894 187.029 33.8896C186.515 32.4899 186.258 30.8232 186.258 28.8896C186.258 27.4769 186.44 26.1846 186.804 25.0127C187.176 23.8408 187.69 22.8545 188.347 22.0537C189.011 21.2464 189.809 20.6247 190.74 20.1885C191.677 19.7458 192.703 19.5244 193.816 19.5244C194.376 19.5244 194.903 19.5765 195.398 19.6807C195.893 19.7783 196.313 19.902 196.658 20.0518C197.01 20.2015 197.342 20.387 197.654 20.6084C197.967 20.8298 198.217 21.0381 198.406 21.2334C198.601 21.4287 198.79 21.6468 198.972 21.8877V16.79H197.019V13.665H204.441V34.7588H206.394V37.8838H200.594L199.412 35.6182C199.158 35.9697 198.872 36.292 198.552 36.585C197.263 37.7503 195.506 38.333 193.279 38.333ZM198.972 25.1982C198.23 23.8311 197.221 23.1475 195.945 23.1475C194.656 23.1475 193.696 23.652 193.064 24.6611C192.439 25.6702 192.127 27.1025 192.127 28.958C192.127 29.8304 192.228 30.6377 192.429 31.3799C192.638 32.1156 192.911 32.7275 193.25 33.2158C193.595 33.7041 193.989 34.085 194.431 34.3584C194.874 34.6253 195.336 34.7588 195.818 34.7588C196.469 34.7588 197.045 34.5798 197.547 34.2217C198.054 33.8571 198.53 33.32 198.972 32.6104V25.1982Z" fill="#00166A"/>
<path d="M25.8222 32.5487C25.8222 32.5487 30.9373 30.4003 32.4793 26.2819L33.0356 32.2208L47.2504 41.4756L47.9211 49.7995L39.2415 49.2499L31.7046 33.4113L25.8231 32.5479L25.8222 32.5487Z" fill="#00166A"/>
<path d="M12.6856 11.9418C5.67949 18.5372 5.33507 29.5511 11.9163 36.5421C13.6938 38.4303 15.7967 39.8329 18.0565 40.7431C20.7151 41.8139 23.5917 42.204 26.4128 41.9026C26.6199 41.8822 26.8248 41.857 27.0285 41.828C26.8028 40.8734 25.5419 35.2402 26.5457 32.7718C23.7147 33.4498 20.6112 32.6351 18.4754 30.3663C15.2968 26.9899 15.4638 21.6715 18.8468 18.4868C22.2299 15.302 27.5492 15.4569 30.7271 18.8327C32.7941 21.0284 33.4468 24.0458 32.7184 26.7624C33.2383 26.5784 35.9956 25.8272 41.6352 28.1453C42.7605 22.7697 41.3319 16.9545 37.2868 12.6576C30.7062 5.66718 19.6916 5.34646 12.6856 11.9418Z" fill="#00166A"/>
</svg>
