<svg width="162" height="69" viewBox="0 0 162 69" fill="none" xmlns="http://www.w3.org/2000/svg">
<path d="M75.6094 39.125V41H66.7031V39.125H68.5781V28.3438H66.7031V26.4688H79.3594V31.1562H77.25V30.2188C77.25 30.0273 77.2324 29.8301 77.1973 29.627C77.166 29.4238 77.1152 29.2227 77.0449 29.0234C76.9785 28.8242 76.8809 28.6621 76.752 28.5371C76.623 28.4082 76.4766 28.3438 76.3125 28.3438H72.3281V33.5H74.4375V31.3906H76.3125V37.4844H74.4375V35.375H72.3281V39.125H75.6094ZM82.4824 28.9707C82.1191 28.6035 81.9375 28.1602 81.9375 27.6406C81.9375 27.1211 82.1191 26.6797 82.4824 26.3164C82.8496 25.9492 83.293 25.7656 83.8125 25.7656C84.332 25.7656 84.7734 25.9492 85.1367 26.3164C85.5039 26.6797 85.6875 27.1211 85.6875 27.6406C85.6875 28.1602 85.5039 28.6035 85.1367 28.9707C84.7734 29.334 84.332 29.5156 83.8125 29.5156C83.293 29.5156 82.8496 29.334 82.4824 28.9707ZM81 30.2188H85.4531V39.125H86.625V41H81V39.125H82.1719V32.0938H81V30.2188ZM90.8438 27.875H92.0156V30.2188H95.2969V32.0938H92.0156V38.1875C92.0156 38.4531 92.0898 38.6758 92.2383 38.8555C92.3906 39.0352 92.6289 39.125 92.9531 39.125C93.3164 39.125 93.625 39.0059 93.8789 38.7676C94.1328 38.5254 94.293 38.1758 94.3594 37.7188L95.7656 37.9531C95.707 38.4102 95.5938 38.834 95.4258 39.2246C95.2617 39.6113 95.0469 39.957 94.7812 40.2617C94.5156 40.5625 94.1855 40.8008 93.791 40.9766C93.4004 41.1484 92.9648 41.2344 92.4844 41.2344C91.3164 41.2344 90.3984 40.9629 89.7305 40.4199C89.0664 39.873 88.7344 39.1289 88.7344 38.1875V32.0938H87.5625V30.2188H87.7969C88.3984 30.2188 88.9297 30.0469 89.3906 29.7031C89.8516 29.3594 90.3359 28.75 90.8438 27.875ZM105.844 39.125V41H96.9375V39.125H98.8125V28.3438H96.9375V26.4688H109.594V31.1562H107.484V30.2188C107.484 30.0273 107.467 29.8301 107.432 29.627C107.4 29.4238 107.35 29.2227 107.279 29.0234C107.213 28.8242 107.115 28.6621 106.986 28.5371C106.857 28.4082 106.711 28.3438 106.547 28.3438H102.562V33.5H104.672V31.3906H106.547V37.4844H104.672V35.375H102.562V39.125H105.844ZM113.373 30.4238C114.061 30.1543 114.789 30.0195 115.559 30.0195C116.328 30.0195 117.055 30.1543 117.738 30.4238C118.426 30.6934 119.023 31.0703 119.531 31.5547C120.039 32.0352 120.439 32.6289 120.732 33.3359C121.029 34.043 121.178 34.8125 121.178 35.6445C121.178 36.4766 121.029 37.2461 120.732 37.9531C120.439 38.6602 120.039 39.2559 119.531 39.7402C119.023 40.2207 118.426 40.5957 117.738 40.8652C117.055 41.1348 116.328 41.2695 115.559 41.2695C114.789 41.2695 114.061 41.1348 113.373 40.8652C112.689 40.5957 112.094 40.2207 111.586 39.7402C111.082 39.2559 110.682 38.6602 110.385 37.9531C110.092 37.2461 109.945 36.4766 109.945 35.6445C109.945 34.8125 110.092 34.043 110.385 33.3359C110.682 32.6289 111.082 32.0352 111.586 31.5547C112.094 31.0703 112.689 30.6934 113.373 30.4238ZM115.559 31.8945C115.285 31.8945 115.041 31.9336 114.826 32.0117C114.611 32.0898 114.414 32.2188 114.234 32.3984C114.055 32.5781 113.906 32.8105 113.789 33.0957C113.676 33.3809 113.586 33.7363 113.52 34.1621C113.457 34.5879 113.426 35.082 113.426 35.6445C113.426 36.207 113.457 36.7012 113.52 37.127C113.586 37.5527 113.676 37.9082 113.789 38.1934C113.906 38.4785 114.055 38.7109 114.234 38.8906C114.414 39.0703 114.611 39.1992 114.826 39.2773C115.041 39.3555 115.285 39.3945 115.559 39.3945C115.902 39.3945 116.201 39.3301 116.455 39.2012C116.709 39.0684 116.93 38.8574 117.117 38.5684C117.309 38.2793 117.451 37.8906 117.545 37.4023C117.643 36.9141 117.691 36.3281 117.691 35.6445C117.691 34.9609 117.643 34.375 117.545 33.8867C117.451 33.3984 117.309 33.0098 117.117 32.7207C116.93 32.4316 116.709 32.2227 116.455 32.0938C116.201 31.9609 115.902 31.8945 115.559 31.8945ZM122.227 30.2188H126.68V36.7812C126.68 37.3984 126.734 37.8789 126.844 38.2227C126.957 38.5664 127.117 38.8027 127.324 38.9316C127.535 39.0605 127.82 39.125 128.18 39.125C128.508 39.125 128.844 38.9863 129.188 38.709C129.535 38.4316 129.863 38.0449 130.172 37.5488L130.195 32.0938H129.023V30.2188H133.477V39.125H134.648V41H131.01L130.189 39.4062C129.529 40.625 128.438 41.2344 126.914 41.2344C126.367 41.2344 125.889 41.1602 125.479 41.0117C125.068 40.8633 124.732 40.6602 124.471 40.4023C124.209 40.1406 123.996 39.8105 123.832 39.4121C123.672 39.0098 123.559 38.5801 123.492 38.123C123.43 37.6621 123.398 37.1367 123.398 36.5469V32.0938H122.227V30.2188ZM143.32 29.9844C143.867 29.9844 144.346 30.0586 144.756 30.207C145.166 30.3555 145.502 30.5605 145.764 30.8223C146.025 31.0801 146.236 31.4102 146.396 31.8125C146.561 32.2109 146.674 32.6406 146.736 33.1016C146.803 33.5586 146.836 34.082 146.836 34.6719V39.125H148.008V41H142.383V39.125H143.555V34.4375C143.555 33.8203 143.498 33.3398 143.385 32.9961C143.275 32.6523 143.115 32.416 142.904 32.2871C142.697 32.1582 142.414 32.0938 142.055 32.0938C141.727 32.0938 141.391 32.2324 141.047 32.5098C140.703 32.7871 140.377 33.1738 140.068 33.6699L140.039 39.125H141.211V41H135.586V39.125H136.758V32.0938H135.586V30.2188H139.225L140.045 31.8066C140.189 31.5449 140.355 31.3105 140.543 31.1035C140.734 30.8926 140.961 30.7012 141.223 30.5293C141.488 30.3535 141.799 30.2188 142.154 30.125C142.51 30.0312 142.898 29.9844 143.32 29.9844ZM152.807 41.2695C151.893 41.2695 151.117 41.0352 150.48 40.5664C149.844 40.0977 149.369 39.4434 149.057 38.6035C148.748 37.7637 148.594 36.7637 148.594 35.6035C148.594 34.7559 148.703 33.9805 148.922 33.2773C149.145 32.5742 149.453 31.9824 149.848 31.502C150.246 31.0176 150.725 30.6445 151.283 30.3828C151.846 30.1172 152.461 29.9844 153.129 29.9844C153.465 29.9844 153.781 30.0156 154.078 30.0781C154.375 30.1367 154.627 30.2109 154.834 30.3008C155.045 30.3906 155.244 30.502 155.432 30.6348C155.619 30.7676 155.77 30.8926 155.883 31.0098C156 31.127 156.113 31.2578 156.223 31.4023V28.3438H155.051V26.4688H159.504V39.125H160.676V41H157.195L156.486 39.6406C156.334 39.8516 156.162 40.0449 155.971 40.2207C155.197 40.9199 154.143 41.2695 152.807 41.2695ZM156.223 33.3887C155.777 32.5684 155.172 32.1582 154.406 32.1582C153.633 32.1582 153.057 32.4609 152.678 33.0664C152.303 33.6719 152.115 34.5312 152.115 35.6445C152.115 36.168 152.176 36.6523 152.297 37.0977C152.422 37.5391 152.586 37.9062 152.789 38.1992C152.996 38.4922 153.232 38.7207 153.498 38.8848C153.764 39.0449 154.041 39.125 154.33 39.125C154.721 39.125 155.066 39.0176 155.367 38.8027C155.672 38.584 155.957 38.2617 156.223 37.8359V33.3887Z" fill="white"/>
<path d="M24.982 43.8472C24.982 43.8472 29.6445 45.5893 33.1844 43.8472L29.8957 48.0688L33.4901 62.8555L28.8095 68.7054L23.4778 63.0089L28.2942 48.0279L24.9831 43.8472H24.982Z" fill="white"/>
<path d="M28.5 0C12.7598 0 0 12.7324 0 28.4387C0 32.681 0.931985 36.7095 2.60303 40.3275C4.56914 44.5839 7.55801 48.2741 11.2562 51.0782C11.5257 51.2863 11.798 51.4859 12.0732 51.6798C12.8747 50.2898 17.6893 42.1662 21.6527 40.3516C17.5205 37.9849 14.7373 33.5345 14.7373 28.4373C14.7373 20.8517 20.8994 14.7042 28.5 14.7042C36.1006 14.7042 42.2627 20.8531 42.2627 28.4373C42.2627 33.3703 39.6569 37.6961 35.7431 40.1152C36.5687 40.479 40.6952 42.6758 44.8133 51.7605C52.1812 46.6194 57 38.091 57 28.4373C57 12.7324 44.2402 0 28.5 0Z" fill="white"/>
</svg>
