<svg width="65" height="79" viewBox="0 0 65 79" fill="none" xmlns="http://www.w3.org/2000/svg">
<path d="M28.4888 50.002C28.4888 50.002 33.8056 51.9886 37.8423 50.002L34.0921 54.8161L38.191 71.6782L32.8535 78.3491L26.7734 71.8531L32.2658 54.7695L28.49 50.002H28.4888Z" fill="#00166A"/>
<path d="M32.5 0C14.5507 0 0 14.5194 0 32.4301C0 37.2678 1.06279 41.8617 2.96837 45.9875C5.21042 50.8413 8.61879 55.0494 12.836 58.2471C13.1433 58.4844 13.4539 58.712 13.7677 58.9331C14.6817 57.348 20.172 48.0843 24.6917 46.0149C19.9795 43.3161 16.8057 38.2411 16.8057 32.4285C16.8057 23.7782 23.8327 16.7679 32.5 16.7679C41.1673 16.7679 48.1943 23.7798 48.1943 32.4285C48.1943 38.0539 45.2227 42.9868 40.7597 45.7454C41.7011 46.1602 46.4069 48.6654 51.1029 59.0251C59.5049 53.1625 65 43.4371 65 32.4285C65 14.5194 50.4493 0 32.5 0Z" fill="#00166A"/>
</svg>
